D:\school\WTK\thesis\model\3dpredictsim\Results\Batchsim_tmt_linear_v2\Pog_s1_tmt_aCst_d05_k800_ig24_pas_GRF.mot
nRows=17
nColumns=19

name D:\school\WTK\thesis\model\3dpredictsim\Results\Batchsim_tmt_linear_v2\Pog_s1_tmt_aCst_d05_k800_ig24_pas_GRF.mot
datacolumns 19
datarows 17
range 0.5437714430 0.7177783048
endheader
time 	ground_force_vx	ground_force_vy	ground_force_vz	ground_force_px	ground_force_py	ground_force_pz	1_ground_force_vx	1_ground_force_vy	1_ground_force_vz	1_ground_force_px	1_ground_force_py	1_ground_force_pz	ground_torque_x	ground_torque_y	ground_torque_z	1_ground_torque_x	1_ground_torque_y	1_ground_torque_z
        0.5437714430	      119.7291172455	      485.8743478993	       -4.8261990608	        0.3299358908	        0.0000000000	        0.0476513713	      -60.9160579194	       43.0166203633	      -10.9643923475	        0.8415867315	        0.0000000000	       -0.0476588422	        0.0000000000	        0.0000000000	        0.0000000000	        0.0000000000	        0.0000000000	        0.0000000000	
        0.5546468719	       86.4108050949	      384.8259241143	        0.9946874220	        0.3433224910	        0.0000000000	        0.0454554960	     -115.1665217776	       99.6558475853	      -26.7380449792	        0.8519271186	        0.0000000000	       -0.0457719561	        0.0000000000	        0.0000000000	        0.0000000000	        0.0000000000	        0.0000000000	        0.0000000000	
        0.5655223007	       47.1633863306	      274.8560917186	        6.7368825172	        0.3654897225	        0.0000000000	        0.0412891503	     -119.0258331223	      218.9509491294	      -43.8774379509	        0.8588507355	        0.0000000000	       -0.0446975417	        0.0000000000	        0.0000000000	        0.0000000000	        0.0000000000	        0.0000000000	        0.0000000000	
        0.5763977296	       15.5054498123	      183.0915895081	        8.5674644134	        0.3973092135	        0.0000000000	        0.0339805147	      -68.5553092031	      407.1834207962	       -6.4040667315	        0.8639783639	        0.0000000000	       -0.0441138243	        0.0000000000	        0.0000000000	        0.0000000000	        0.0000000000	        0.0000000000	        0.0000000000	
        0.5872731584	       -0.4138204579	      143.0651119346	       11.2408031988	        0.4115787332	        0.0000000000	        0.0294315377	      -85.2712166779	      650.1122226397	        9.6681598060	        0.8734310231	        0.0000000000	       -0.0464881319	        0.0000000000	        0.0000000000	        0.0000000000	        0.0000000000	        0.0000000000	        0.0000000000	
        0.5981485873	       -1.1930571898	      110.3378787431	       11.6693156512	        0.4119865097	        0.0000000000	        0.0296000581	     -124.3685358113	      863.4081813743	       18.0416809499	        0.8816748507	        0.0000000000	       -0.0488241459	        0.0000000000	        0.0000000000	        0.0000000000	        0.0000000000	        0.0000000000	        0.0000000000	
        0.6090240162	       -4.1660600664	       72.2650483734	       11.0436172512	        0.4124564010	        0.0000000000	        0.0297174999	     -138.1701710723	      953.3844814201	       21.1942809578	        0.8871426173	        0.0000000000	       -0.0502348710	        0.0000000000	        0.0000000000	        0.0000000000	        0.0000000000	        0.0000000000	        0.0000000000	
        0.6198994450	       -8.8867956354	       30.3394371531	        6.3886274726	        0.4121167572	        0.0000000000	        0.0296544462	     -132.8486494952	      943.9448613454	       20.7071426662	        0.8911625196	        0.0000000000	       -0.0511511403	        0.0000000000	        0.0000000000	        0.0000000000	        0.0000000000	        0.0000000000	        0.0000000000	
        0.6307748739	        0.1591484662	       -0.1598965308	       -0.0131158540	        0.0000000000	        0.0000000000	        0.0000000000	     -119.0865265179	      896.2507283836	       19.8939945676	        0.8948282399	        0.0000000000	       -0.0518064807	        0.0000000000	        0.0000000000	        0.0000000000	        0.0000000000	        0.0000000000	        0.0000000000	
        0.6416503027	        0.0003904056	       -0.0003232962	        0.0000042795	        0.0000000000	        0.0000000000	        0.0000000000	     -104.3910064894	      844.4461116105	       18.6881356868	        0.8989119283	        0.0000000000	       -0.0524539428	        0.0000000000	        0.0000000000	        0.0000000000	        0.0000000000	        0.0000000000	        0.0000000000	
        0.6525257316	        0.0001890000	       -0.0001365336	        0.0000058293	        0.0000000000	        0.0000000000	        0.0000000000	      -95.4416338261	      808.0363290846	       18.8704322657	        0.9043915696	        0.0000000000	       -0.0529716641	        0.0000000000	        0.0000000000	        0.0000000000	        0.0000000000	        0.0000000000	        0.0000000000	
        0.6634011605	        0.0015414421	       -0.0009983919	        0.0000609145	        0.0000000000	        0.0000000000	        0.0000000000	      -86.8853121654	      772.8862419811	       18.1936923822	        0.9103773097	        0.0000000000	       -0.0531016504	        0.0000000000	        0.0000000000	        0.0000000000	        0.0000000000	        0.0000000000	        0.0000000000	
        0.6742765893	        0.0062813326	       -0.0037286356	        0.0002758623	        0.0000000000	        0.0000000000	        0.0000000000	      -77.8559649408	      733.0760547576	       17.7590384118	        0.9161128899	        0.0000000000	       -0.0531451894	        0.0000000000	        0.0000000000	        0.0000000000	        0.0000000000	        0.0000000000	        0.0000000000	
        0.6851520182	       -0.0610055207	        0.0337281739	       -0.0028454000	        0.0000000000	        0.0000000000	        0.0000000000	      -69.4621434226	      697.2327749423	       17.3750089334	        0.9217299346	        0.0000000000	       -0.0530612672	        0.0000000000	        0.0000000000	        0.0000000000	        0.0000000000	        0.0000000000	        0.0000000000	
        0.6960274470	       -0.0422068086	        0.0219722093	       -0.0020530847	        0.0000000000	        0.0000000000	        0.0000000000	      -61.4810876057	      668.6177885913	       17.2579340192	        0.9271961440	        0.0000000000	       -0.0529507065	        0.0000000000	        0.0000000000	        0.0000000000	        0.0000000000	        0.0000000000	        0.0000000000	
        0.7069028759	       -0.0292903269	        0.0144779498	       -0.0014647962	        0.0000000000	        0.0000000000	        0.0000000000	      -54.0377003686	      646.3058831597	       17.4939089199	        0.9324361391	        0.0000000000	       -0.0528310579	        0.0000000000	        0.0000000000	        0.0000000000	        0.0000000000	        0.0000000000	        0.0000000000	
        0.7177783048	       -0.0252489325	        0.0119244788	       -0.0012868023	        0.0000000000	        0.0000000000	        0.0000000000	      -47.5951342679	      629.3220711036	       17.8663678749	        0.9374337762	        0.0000000000	       -0.0526907760	        0.0000000000	        0.0000000000	        0.0000000000	        0.0000000000	        0.0000000000	        0.0000000000	
